<svg width="42" height="42" viewBox="0 0 42 42" fill="none" xmlns="http://www.w3.org/2000/svg">
<path d="M0 21C0 32.598 9.40202 42 21 42C32.598 42 42 32.598 42 21C42 9.40202 32.598 0 21 0C9.40202 0 0 9.40202 0 21Z" fill="#1877F2"/>
<path d="M31.5 21C31.5 15.225 26.775 10.5 21 10.5C15.225 10.5 10.5 15.225 10.5 21C10.5 26.25 14.3062 30.5813 19.2937 31.3688V24.0188H16.6687V21H19.2937V18.6375C19.2937 16.0125 20.8688 14.5688 23.2313 14.5688C24.4125 14.5688 25.5938 14.8313 25.5938 14.8313V17.4563H24.2812C22.9688 17.4563 22.575 18.2438 22.575 19.0313V21H25.4625L24.9375 24.0188H22.4438V31.5C27.6938 30.7125 31.5 26.25 31.5 21Z" fill="white"/>
</svg>
