<svg width="42" height="42" viewBox="0 0 42 42" fill="none" xmlns="http://www.w3.org/2000/svg">
<path d="M0 21C0 32.598 9.40202 42 21 42C32.598 42 42 32.598 42 21C42 9.40202 32.598 0 21 0C9.40202 0 0 9.40202 0 21Z" fill="#F00073"/>
<path d="M21.0002 12.0752C23.8877 12.0752 24.2814 12.0752 25.4627 12.0752C26.5127 12.0752 27.0377 12.3377 27.4314 12.4689C27.9564 12.7314 28.3502 12.8627 28.7439 13.2564C29.1377 13.6502 29.4002 14.0439 29.5314 14.5689C29.6627 14.9627 29.7939 15.4877 29.9252 16.5377C29.9252 17.7189 29.9252 17.9814 29.9252 21.0002C29.9252 24.019 29.9252 24.2815 29.9252 25.4627C29.9252 26.5127 29.6627 27.0377 29.5314 27.4315C29.2689 27.9565 29.1377 28.3502 28.7439 28.744C28.3502 29.1377 27.9564 29.4002 27.4314 29.5315C27.0377 29.6627 26.5127 29.794 25.4627 29.9252C24.2814 29.9252 24.0189 29.9252 21.0002 29.9252C17.9814 29.9252 17.7189 29.9252 16.5377 29.9252C15.4877 29.9252 14.9627 29.6627 14.5689 29.5315C14.0439 29.269 13.6502 29.1377 13.2564 28.744C12.8627 28.3502 12.6002 27.9565 12.4689 27.4315C12.3377 27.0377 12.2064 26.5127 12.0752 25.4627C12.0752 24.2815 12.0752 24.019 12.0752 21.0002C12.0752 17.9814 12.0752 17.7189 12.0752 16.5377C12.0752 15.4877 12.3377 14.9627 12.4689 14.5689C12.7314 14.0439 12.8627 13.6502 13.2564 13.2564C13.6502 12.8627 14.0439 12.6002 14.5689 12.4689C14.9627 12.3377 15.4877 12.2064 16.5377 12.0752C17.7189 12.0752 18.1127 12.0752 21.0002 12.0752ZM21.0002 10.1064C17.9814 10.1064 17.7189 10.1064 16.5377 10.1064C15.3564 10.1064 14.5689 10.3689 13.9127 10.6314C13.2564 10.8939 12.6002 11.2877 11.9439 11.9439C11.2877 12.6002 11.0252 13.1252 10.6314 13.9127C10.3689 14.5689 10.2377 15.3564 10.1064 16.5377C10.1064 17.7189 10.1064 18.1127 10.1064 21.0002C10.1064 24.019 10.1064 24.2815 10.1064 25.4627C10.1064 26.644 10.3689 27.4315 10.6314 28.0877C10.8939 28.744 11.2877 29.4002 11.9439 30.0565C12.6002 30.7127 13.1252 30.9752 13.9127 31.369C14.5689 31.6315 15.3564 31.7627 16.5377 31.894C17.7189 31.894 18.1127 31.894 21.0002 31.894C23.8877 31.894 24.2814 31.894 25.4627 31.894C26.6439 31.894 27.4314 31.6315 28.0877 31.369C28.7439 31.1065 29.4002 30.7127 30.0564 30.0565C30.7127 29.4002 30.9752 28.8752 31.3689 28.0877C31.6315 27.4315 31.7627 26.644 31.8939 25.4627C31.8939 24.2815 31.8939 23.8877 31.8939 21.0002C31.8939 18.1127 31.8939 17.7189 31.8939 16.5377C31.8939 15.3564 31.6315 14.5689 31.3689 13.9127C31.1064 13.2564 30.7127 12.6002 30.0564 11.9439C29.4002 11.2877 28.8752 11.0252 28.0877 10.6314C27.4314 10.3689 26.6439 10.2377 25.4627 10.1064C24.2814 10.1064 24.0189 10.1064 21.0002 10.1064Z" fill="white"/>
<path d="M21.0002 15.3564C17.8502 15.3564 15.3564 17.8502 15.3564 21.0002C15.3564 24.1502 17.8502 26.644 21.0002 26.644C24.1502 26.644 26.6439 24.1502 26.6439 21.0002C26.6439 17.8502 24.1502 15.3564 21.0002 15.3564ZM21.0002 24.6752C19.0314 24.6752 17.3252 23.1002 17.3252 21.0002C17.3252 19.0314 18.9002 17.3252 21.0002 17.3252C22.9689 17.3252 24.6752 18.9002 24.6752 21.0002C24.6752 22.969 22.9689 24.6752 21.0002 24.6752Z" fill="white"/>
<path d="M26.7752 16.5377C27.5001 16.5377 28.0877 15.9501 28.0877 15.2252C28.0877 14.5003 27.5001 13.9127 26.7752 13.9127C26.0503 13.9127 25.4627 14.5003 25.4627 15.2252C25.4627 15.9501 26.0503 16.5377 26.7752 16.5377Z" fill="white"/>
</svg>
