<svg width="42" height="43" viewBox="0 0 42 43" fill="none" xmlns="http://www.w3.org/2000/svg">
<path d="M0 21.0779C0 32.7189 9.40202 42.1558 21 42.1558C32.598 42.1558 42 32.7189 42 21.0779C42 9.43689 32.598 0 21 0C9.40202 0 0 9.43689 0 21.0779Z" fill="#1DA1F2"/>
<path d="M31.5 14.4912C30.7125 14.8864 29.925 15.0181 29.0062 15.1499C29.925 14.6229 30.5812 13.8325 30.8437 12.7786C30.0562 13.3056 29.1375 13.569 28.0875 13.8325C27.3 13.0421 26.1187 12.5151 24.9375 12.5151C22.1812 12.5151 20.0812 15.1499 20.7375 17.7846C17.1937 17.6529 14.0437 15.9403 11.8125 13.3056C10.6312 15.2816 11.2875 17.7846 13.125 19.102C12.4687 19.102 11.8125 18.8385 11.1562 18.575C11.1562 20.5511 12.6 22.3954 14.5687 22.9223C13.9125 23.0541 13.2562 23.1858 12.6 23.0541C13.125 24.7667 14.7 26.084 16.6687 26.084C15.0937 27.2697 12.7312 27.9283 10.5 27.6649C12.4687 28.8505 14.7 29.6409 17.0625 29.6409C25.0687 29.6409 29.5312 22.9223 29.2687 16.7307C30.1875 16.2038 30.975 15.4133 31.5 14.4912Z" fill="white"/>
</svg>
