<svg width="42" height="42" viewBox="0 0 42 42" fill="none" xmlns="http://www.w3.org/2000/svg">
<path d="M0 21C0 32.598 9.40202 42 21 42C32.598 42 42 32.598 42 21C42 9.40202 32.598 0 21 0C9.40202 0 0 9.40202 0 21Z" fill="#FF0000"/>
<path d="M30.975 15.8812C30.7125 14.9624 30.0563 14.3062 29.1375 14.0437C27.5625 13.6499 20.8687 13.6499 20.8687 13.6499C20.8687 13.6499 14.3063 13.6499 12.6 14.0437C11.6813 14.3062 11.025 14.9624 10.7625 15.8812C10.5 17.5874 10.5 20.9999 10.5 20.9999C10.5 20.9999 10.5 24.4124 10.8938 26.1187C11.1563 27.0374 11.8125 27.6937 12.7312 27.9562C14.3062 28.3499 21 28.3499 21 28.3499C21 28.3499 27.5625 28.3499 29.2687 27.9562C30.1875 27.6937 30.8438 27.0374 31.1063 26.1187C31.5 24.4124 31.5 20.9999 31.5 20.9999C31.5 20.9999 31.5 17.5874 30.975 15.8812ZM18.9 24.1499V17.8499L24.4125 20.9999L18.9 24.1499Z" fill="white"/>
</svg>
