<svg width="147" height="147" viewBox="0 0 147 147" fill="none" xmlns="http://www.w3.org/2000/svg">
<circle cx="73.5" cy="73.5" r="73.5" fill="#D7D7D7" fill-opacity="0.5"/>
<g clip-path="url(#clip0_2488_15909)">
<path d="M112.804 57.909C112.348 56.997 111.238 56.631 110.327 57.0835L102.945 60.7749C102.033 61.2309 101.663 62.3394 102.119 63.2514C102.575 64.1598 103.678 64.533 104.596 64.0769L111.978 60.3855C112.89 59.9295 113.26 58.821 112.804 57.909Z" fill="white"/>
<path d="M111.978 79.2316L104.596 75.5402C103.684 75.086 102.577 75.4518 102.119 76.3657C101.663 77.2777 102.033 78.3862 102.945 78.8423L110.327 82.5337C111.248 82.991 112.35 82.6135 112.804 81.7081C113.26 80.7961 112.89 79.6876 111.978 79.2316Z" fill="white"/>
<path d="M92.4507 72.501H64.7655V63.0265C64.7655 57.9382 68.9057 53.7981 73.9939 53.7981C79.0821 53.7981 83.2223 57.9383 83.2223 63.0265V66.7179C83.2223 67.7381 84.0478 68.5636 85.068 68.5636H92.4507C93.4709 68.5636 94.2964 67.7381 94.2964 66.7179V63.0265C94.2964 51.8317 85.1887 42.7241 73.9939 42.7241C62.7991 42.7241 53.6914 51.8317 53.6914 63.0265V72.841C51.5477 73.6055 50 75.635 50 78.038V100.186C50 103.239 52.4838 105.723 55.537 105.723H92.4507C95.504 105.723 97.9877 103.239 97.9877 100.186V78.038C97.9877 74.9847 95.504 72.501 92.4507 72.501ZM75.8396 90.6178V96.4948C75.8396 97.515 75.0141 98.3405 73.9939 98.3405C72.9737 98.3405 72.1482 97.515 72.1482 96.4948V90.6178C70.0045 89.8533 68.4568 87.8238 68.4568 85.4208C68.4568 82.3675 70.9406 79.8837 73.9939 79.8837C77.0472 79.8837 79.5309 82.3675 79.5309 85.4208C79.5309 87.8239 77.9832 89.8533 75.8396 90.6178Z" fill="white"/>
<path d="M111.154 67.9629H103.771C102.751 67.9629 101.926 68.7884 101.926 69.8086C101.926 70.8288 102.751 71.6543 103.771 71.6543H111.154C112.174 71.6543 113 70.8288 113 69.8086C113 68.7884 112.174 67.9629 111.154 67.9629Z" fill="white"/>
</g>
<defs>
<clipPath id="clip0_2488_15909">
<rect width="63" height="63" fill="white" transform="translate(50 42)"/>
</clipPath>
</defs>
</svg>
