<?xml version="1.0" encoding="utf-8"?>
<!-- Generator: Adobe Illustrator 18.0.0, SVG Export Plug-In . SVG Version: 6.00 Build 0)  -->
<!DOCTYPE svg PUBLIC "-//W3C//DTD SVG 1.1//EN" "http://www.w3.org/Graphics/SVG/1.1/DTD/svg11.dtd">
<svg version="1.1" id="Layer_1" xmlns="http://www.w3.org/2000/svg" xmlns:xlink="http://www.w3.org/1999/xlink" x="0px" y="0px"
	 width="749px" height="372.7px" viewBox="0 0 749 372.7" enable-background="new 0 0 749 372.7" xml:space="preserve">
<g>
	
		<linearGradient id="SVGID_1_" gradientUnits="userSpaceOnUse" x1="374.6" y1="5313.5547" x2="374.6" y2="5548.0977" gradientTransform="matrix(1 0 0 1 0 -5292)">
		<stop  offset="0" style="stop-color:#FDB917"/>
		<stop  offset="0.414" style="stop-color:#FDB718"/>
		<stop  offset="0.7461" style="stop-color:#FCB01B"/>
		<stop  offset="1" style="stop-color:#FAA61D"/>
	</linearGradient>
	<path fill="url(#SVGID_1_)" d="M487.9,102.1L386.2,27.7c-7-6.8-17-6.8-24,0l-101,74.3c-4.4,4.3-6.9,10.5-6.9,17.2l20.2,114
		c0,12.3,8.4,22.3,18.9,22.3h162.4c10.4,0,18.9-9.9,18.9-22.3l20.2-114C494.8,112.6,492.2,106.3,487.9,102.1z"/>
	<path fill="#FFFFFF" d="M464.2,104.2L384,41.5c-5.5-5.6-13.4-5.6-19,0l-80.1,62.6c-3.4,3.5-5.4,8.7-5.4,14.2l15.9,94.3
		c0,10.1,6.7,18.4,14.9,18.4h128.4c8.3,0,14.9-8.3,14.9-18.4l15.9-94.2C469.6,112.9,467.6,107.8,464.2,104.2z"/>
	<g>
		<g>
			<g>
				<path d="M374.7,194.4c-13.9-0.2-27.1-3.5-38.9-11.2c-5.3-3.5-9.6-7.7-13.2-12.7c-0.3-0.4-0.6-0.8-0.6-1.2
					c0.1-0.5,0.4-1.2,0.9-1.4s1.4-0.1,1.8,0.2c7.7,6.6,17.1,9.5,26.9,11.6c9.5,2,19.2,2.5,28.9,2.1c11.7-0.6,23.2-2.4,33.9-7.1
					c3.8-1.7,7.4-3.7,10.4-6.4c1-0.8,1.8-0.9,2.5-0.3c0.7,0.6,0.7,1.4,0,2.4c-5.4,7.6-12.5,13.1-21.1,17.2
					C396.5,192.3,385.9,194.3,374.7,194.4z"/>
				<path d="M322.8,165.1c-2.8,0-4.7,1.8-4.6,4.6c0,1.2-0.4,1.8-1.4,1.9c-0.9,0.1-1.6-0.3-1.8-1.2c-1-4.4,3.6-9,8.3-8.3
					c1.2,0.2,1.8,0.7,1.7,1.7c-0.1,0.9-0.7,1.4-2,1.4C323.1,165.1,322.9,165.1,322.8,165.1z"/>
				<path d="M434.1,169.4c0,0.2,0,0.5-0.1,0.9c-0.1,0.9-0.8,1.5-1.7,1.4c-1-0.1-1.4-0.7-1.4-1.5s0-1.6-0.3-2.4
					c-0.6-1.6-2.2-2.6-4-2.6c-0.3,0-0.7,0-1,0c-1,0-1.5-0.5-1.6-1.4c0-0.8,0.4-1.4,1.3-1.6c2.5-0.6,5.7,0.7,7.4,2.9
					C433.6,166.2,434.1,167.6,434.1,169.4z"/>
			</g>
		</g>
	</g>
	<g>
		<rect x="350.1" y="95.1" fill="#FDB917" width="20.6" height="19.4"/>
		<rect x="378.4" y="95.1" fill="#FDB917" width="20.6" height="19.4"/>
		<rect x="350.1" y="121.8" fill="#FDB917" width="20.6" height="19.4"/>
		<rect x="378.4" y="121.8" fill="#FDB917" width="20.6" height="19.4"/>
	</g>
	<g>
		
			<linearGradient id="SVGID_2_" gradientUnits="userSpaceOnUse" x1="374.5" y1="5300.96" x2="374.5" y2="5562.5474" gradientTransform="matrix(1 0 0 1 0 -5292)">
			<stop  offset="0" style="stop-color:#FDB917"/>
			<stop  offset="0.414" style="stop-color:#FDB718"/>
			<stop  offset="0.7461" style="stop-color:#FCB01B"/>
			<stop  offset="1" style="stop-color:#FAA61D"/>
		</linearGradient>
		<path fill="url(#SVGID_2_)" d="M214.8,140.4L214.8,140.4c-4.2-6.3-2.5-14.7,3.8-18.8L361.4,11.1c8.1-5.3,18.4-5.3,26.4,0
			l142.6,110.5c6.3,4.2,8,12.6,3.8,18.8l0,0c-4.2,6.3-12.6,8-18.8,3.8L381,39.1c-3.8-2.6-8.7-2.6-12.6,0l-134.7,105
			C227.4,148.3,218.9,146.6,214.8,140.4z"/>
	</g>
	<polygon opacity="0.25" fill="#B47D2B" enable-background="new    " points="255.7,126.9 272.1,113.6 257.5,137.8 	"/>
	<polygon opacity="0.25" fill="#B47D2B" enable-background="new    " points="493.4,126.9 477,114.1 491.3,138.7 	"/>
</g>
<path fill="#FDB917" d="M29.6,363.6H14.7l9.4-61.6l25,35.7L74,302l9.4,61.6H68.5l-3.6-29.9l-16.1,24.5l-15.7-24.5L29.6,363.6z"/>
<path fill="#FDB917" d="M102,354.2c0.4,0.7,1.2,1.2,1.9,1.6c0.9,0.3,1.8,0.6,2.7,0.6c1.5,0,2.8-0.3,4-0.9s2.2-1.5,3-2.7
	c0.7-1.2,1.2-2.7,1.2-4.5l1.3,5.1c0,2.4-0.6,4.5-1.9,6.3s-3.1,3-5.2,3.9c-2.1,0.9-4.3,1.3-6.9,1.3c-2.4,0-4.8-0.4-6.9-1.3
	s-3.7-2.2-5.1-4.2c-1.2-1.8-1.9-4-1.9-6.7c0-3.7,1.3-6.6,3.9-8.8c2.7-2.1,6.3-3.3,11.1-3.3c2.4,0,4.5,0.1,6.3,0.6
	c1.9,0.4,3.4,1,4.8,1.6c1.3,0.6,2.4,1.3,3,2.1v5.7c-1.3-1-2.8-1.8-4.6-2.2c-1.8-0.6-3.6-0.7-5.5-0.7c-1.5,0-2.7,0.1-3.6,0.4
	c-0.9,0.3-1.5,0.9-1.9,1.5s-0.6,1.5-0.6,2.4C101.2,352.6,101.4,353.5,102,354.2z M91.3,328.5c2.2-1,4.8-2.1,7.9-3
	c3.1-0.9,6.4-1.5,10-1.5c3.4,0,6.4,0.4,9.1,1.5c2.7,1,4.8,2.4,6.4,4.2c1.5,1.8,2.4,4,2.4,6.7v27.2h-12v-24.2c0-0.9-0.1-1.8-0.4-2.5
	c-0.3-0.7-0.7-1.3-1.3-1.8c-0.6-0.4-1.3-0.9-2.2-1s-1.9-0.3-3.1-0.3c-1.8,0-3.4,0.1-5.1,0.6c-1.6,0.4-3.1,0.9-4.3,1.3
	c-1.2,0.6-2.1,0.9-2.7,1.3L91.3,328.5z"/>
<path fill="#FDB917" d="M148.6,298.3v65.3h-12.1v-65.3H148.6z M177.6,325.2L161.2,341l18.1,22.6h-14.9L146,341.1l16.4-15.8h15.2
	V325.2z"/>
<path fill="#FDB917" d="M195.4,354.2c0.4,0.7,1.2,1.2,1.9,1.6c0.9,0.3,1.8,0.6,2.7,0.6c1.5,0,2.8-0.3,4-0.9c1.2-0.6,2.2-1.5,3-2.7
	c0.7-1.2,1.2-2.7,1.2-4.5l1.3,5.1c0,2.4-0.6,4.5-1.9,6.3s-3.1,3-5.2,3.9c-2.1,0.9-4.3,1.3-6.9,1.3c-2.4,0-4.8-0.4-6.9-1.3
	c-2.1-0.9-3.7-2.2-5.1-4.2c-1.2-1.8-1.9-4-1.9-6.7c0-3.7,1.3-6.6,3.9-8.8c2.7-2.1,6.3-3.3,11.1-3.3c2.4,0,4.5,0.1,6.3,0.6
	c1.9,0.4,3.4,1,4.8,1.6c1.3,0.6,2.4,1.3,3,2.1v5.7c-1.3-1-2.8-1.8-4.6-2.2c-1.8-0.6-3.6-0.7-5.5-0.7c-1.5,0-2.7,0.1-3.6,0.4
	s-1.5,0.9-1.9,1.5c-0.4,0.6-0.6,1.5-0.6,2.4C194.6,352.6,194.8,353.5,195.4,354.2z M184.8,328.5c2.2-1,4.8-2.1,7.9-3s6.4-1.5,10-1.5
	c3.4,0,6.4,0.4,9.1,1.5c2.7,1,4.8,2.4,6.4,4.2c1.5,1.8,2.4,4,2.4,6.7v27.2h-12.1v-24.2c0-0.9-0.1-1.8-0.4-2.5s-0.7-1.3-1.3-1.8
	c-0.6-0.4-1.3-0.9-2.2-1s-1.9-0.3-3.1-0.3c-1.8,0-3.4,0.1-5.1,0.6c-1.6,0.4-3.1,0.9-4.3,1.3c-1.2,0.6-2.1,0.9-2.7,1.3L184.8,328.5z"
	/>
<path fill="#FDB917" d="M240.5,354.2c0.4,0.7,1.2,1.2,1.9,1.6c0.9,0.3,1.8,0.6,2.7,0.6c1.5,0,2.8-0.3,4-0.9c1.2-0.6,2.2-1.5,3-2.7
	c0.7-1.2,1.2-2.7,1.2-4.5l1.3,5.1c0,2.4-0.6,4.5-1.9,6.3s-3.1,3-5.2,3.9c-2.1,0.9-4.3,1.3-6.9,1.3c-2.4,0-4.8-0.4-6.9-1.3
	c-2.1-0.9-3.7-2.2-5.1-4.2c-1.2-1.8-1.9-4-1.9-6.7c0-3.7,1.3-6.6,3.9-8.8c2.7-2.1,6.3-3.3,11.1-3.3c2.4,0,4.5,0.1,6.3,0.6
	c1.9,0.4,3.4,1,4.8,1.6c1.3,0.6,2.4,1.3,3,2.1v5.7c-1.3-1-2.8-1.8-4.6-2.2c-1.8-0.6-3.6-0.7-5.5-0.7c-1.5,0-2.7,0.1-3.6,0.4
	c-0.9,0.3-1.5,0.9-1.9,1.5s-0.6,1.5-0.6,2.4C239.8,352.6,239.9,353.5,240.5,354.2z M229.7,328.5c2.2-1,4.8-2.1,7.9-3s6.4-1.5,10-1.5
	c3.4,0,6.4,0.4,9.1,1.5c2.7,1,4.8,2.4,6.4,4.2c1.5,1.8,2.4,4,2.4,6.7v27.2h-12.3v-24.2c0-0.9-0.1-1.8-0.4-2.5s-0.7-1.3-1.3-1.8
	c-0.6-0.4-1.3-0.9-2.2-1s-1.9-0.3-3.1-0.3c-1.8,0-3.4,0.1-5.1,0.6c-1.6,0.4-3.1,0.9-4.3,1.3c-1.2,0.6-2.1,0.9-2.7,1.3L229.7,328.5z"
	/>
<path fill="#FDB917" d="M298.8,334.9c-0.9-1.2-2.2-1.8-4.3-1.8c-1.3,0-2.5,0.3-3.6,0.9c-1,0.6-1.8,1.3-2.4,2.4
	c-0.6,1.1-0.9,2.4-0.9,3.9v23.3h-12.7V325h12.7v5.8c1-2.1,2.7-3.7,4.6-4.9c1.9-1.2,4.3-1.8,7.2-1.8c4.8,0,8.2,1.3,10.5,3.9
	c2.3,2.6,3.3,6.1,3.3,10.8v24.8H300v-23.5C300,337.9,299.5,336.1,298.8,334.9z"/>
<path d="M353.5,331.6h29.6c0.3,4.6-0.1,9.1-1.5,13.2c-1.2,4-3.1,7.6-5.7,10.8c-2.5,3.1-5.8,5.5-9.6,7.3c-3.9,1.8-8.2,2.7-13.2,2.7
	c-4.6,0-9-0.7-12.9-2.2s-7.3-3.6-10.2-6.4c-2.8-2.7-5.1-6.1-6.7-9.9c-1.6-3.9-2.4-8.1-2.4-12.7s0.7-8.8,2.4-12.6
	c1.6-3.7,3.9-7,6.9-9.7s6.4-4.8,10.3-6.1c4-1.5,8.2-2.2,12.9-2.2c4.2,0,7.8,0.6,11.1,1.8c3.3,1.2,6.3,2.8,8.8,4.9s4.8,4.5,6.6,7.2
	l-12.6,6.6c-1.3-2.4-3.1-4.3-5.4-5.8c-2.2-1.5-5.1-2.2-8.5-2.2c-3.3,0-6.3,0.7-9,2.2s-4.8,3.6-6.4,6.3c-1.6,2.7-2.4,6-2.4,9.9
	s0.7,7.2,2.2,10s3.6,4.9,6.3,6.6c2.7,1.5,5.7,2.2,9.1,2.2c2.1,0,4-0.3,5.8-0.7c1.8-0.6,3.1-1.3,4.5-2.2c1.2-1,2.2-2.1,3.1-3.4
	s1.5-2.7,2.1-4.2h-15.4v-11.4H353.5z"/>
<path d="M405.8,353.8c0.9,1.2,2.2,1.9,4.3,1.9c1.3,0,2.5-0.3,3.6-0.9c1-0.6,1.8-1.3,2.2-2.4c0.6-1,0.9-2.4,0.9-3.9V325h12.7v38.6
	h-12.7v-5.8c-1.2,2.1-2.7,3.7-4.6,4.9c-1.9,1.2-4.3,1.8-7.2,1.8c-4.8,0-8.4-1.3-10.5-3.9c-2.2-2.5-3.3-6.1-3.3-10.8V325h13.2v23.5
	C404.5,350.8,404.9,352.6,405.8,353.8z"/>
<path d="M440.8,305.8c1.5-1.2,3.1-1.9,5.2-1.9s3.7,0.6,5.2,1.9c1.5,1.2,2.1,2.8,2.1,4.9c0,1.9-0.7,3.6-2.1,4.9
	c-1.5,1.3-3.1,1.9-5.2,1.9c-1.9,0-3.7-0.6-5.2-1.9s-2.2-3-2.2-4.9C438.7,308.6,439.4,307,440.8,305.8z M452.1,325.2v38.4h-12.3V325
	h12.3V325.2z"/>
<path d="M462.9,333.4c1.8-3,4-5.2,6.9-6.7c2.8-1.5,5.7-2.4,8.8-2.4c3.3,0,6.1,0.7,8.5,2.4c2.5,1.6,4.5,3.9,5.8,6.9
	c1.5,3,2.2,6.6,2.2,10.8c0,4.2-0.7,7.8-2.2,10.8s-3.4,5.4-5.8,6.9c-2.5,1.6-5.4,2.4-8.5,2.4s-6.1-0.7-8.8-2.4
	c-2.8-1.5-5.1-3.9-6.9-6.9s-2.7-6.6-2.7-10.9C460.2,340,461.1,336.4,462.9,333.4z M474.9,349.6c0.9,1.5,1.9,2.7,3.3,3.4
	c1.3,0.7,3,1.2,4.6,1.2c1.5,0,2.8-0.4,4.2-1.2s2.5-1.9,3.4-3.4s1.3-3.3,1.3-5.4s-0.4-3.9-1.3-5.4s-2.1-2.5-3.4-3.4
	c-1.3-0.7-2.8-1.2-4.2-1.2c-1.6,0-3.1,0.4-4.6,1.2c-1.3,0.7-2.5,1.9-3.3,3.4c-0.9,1.5-1.2,3.3-1.2,5.2
	C473.7,346,474,348.2,474.9,349.6z M504.3,298.3v65.3h-12.7v-65.3H504.3z"/>
<path d="M522.1,362c-3.3-1.6-5.8-4-7.6-7c-1.8-3-2.7-6.6-2.7-10.6c0-4.2,0.9-7.8,2.5-10.8c1.8-3,4.2-5.4,7.5-6.9
	c3.3-1.6,7.2-2.4,11.7-2.4s8.2,0.7,11.4,2.2c3.1,1.5,5.4,3.7,7,6.7c1.6,2.8,2.4,6.4,2.4,10.6c0,0.6,0,1.2,0,1.8c0,0.6,0,1-0.1,1.5
	H519v-7h23.8l-3,3.9c0.3-0.4,0.4-0.9,0.7-1.5c0.1-0.6,0.3-1,0.3-1.5c0-1.6-0.3-3.1-0.9-4.3c-0.6-1.2-1.5-2.2-2.5-2.8
	c-1-0.6-2.4-1-3.9-1c-1.9,0-3.4,0.4-4.8,1.2c-1.3,0.9-2.2,2.1-2.8,3.7s-1,3.9-1,6.4c0,2.4,0.3,4.3,1,6c0.6,1.6,1.6,3,3,3.7
	c1.3,0.9,3,1.3,4.9,1.3c2.2,0,4.2-0.4,5.7-1.2c1.6-0.9,2.8-2.1,3.7-3.7l11.4,2.7c-1.9,3.7-4.8,6.6-8.2,8.5
	c-3.4,1.9-7.6,2.8-12.6,2.8C529.3,364.5,525.4,363.6,522.1,362z"/>
<path d="M560.8,352.6c1.5-1.5,3.4-2.2,5.7-2.2c2.4,0,4.2,0.7,5.7,2.2s2.2,3.3,2.2,5.4s-0.7,3.9-2.2,5.4s-3.3,2.2-5.7,2.2
	c-2.2,0-4-0.7-5.7-2.2c-1.5-1.5-2.2-3.3-2.2-5.4S559.3,354.1,560.8,352.6z"/>
<path fill="#FDB917" d="M596.8,349.7c0.9,1.5,2.1,2.7,3.7,3.4c1.6,0.9,3.3,1.2,5.1,1.2c1.5,0,3-0.3,4.5-0.7s2.7-1.2,3.9-1.9
	c1.2-0.9,2.2-1.9,3-3.1v12.3c-1.3,1-3,1.9-5.1,2.5s-4.5,0.9-7.3,0.9c-4.2,0-8.1-0.9-11.4-2.5c-3.3-1.6-6-4-7.9-7
	c-1.9-3-2.8-6.6-2.8-10.6s0.9-7.6,2.8-10.6c1.9-3,4.6-5.4,7.9-7s7.2-2.5,11.4-2.5c2.8,0,5.4,0.3,7.3,0.9c1.9,0.6,3.7,1.5,5.1,2.4
	v12.4c-0.7-1.2-1.8-2.2-3-3.1s-2.5-1.5-4-1.9s-2.8-0.6-4.3-0.6c-1.8,0-3.6,0.4-5.1,1.3c-1.6,0.9-2.8,2.1-3.7,3.6s-1.3,3.1-1.3,5.1
	C595.5,346.4,595.9,348.2,596.8,349.7z"/>
<path fill="#FDB917" d="M626.9,333.7c1.9-3,4.5-5.4,7.9-7s7.2-2.5,11.4-2.5s7.9,0.9,11.2,2.5s6,4,7.9,7s2.8,6.6,2.8,10.6
	s-0.9,7.5-2.8,10.6c-1.9,3-4.5,5.4-7.9,7c-3.3,1.6-7,2.5-11.2,2.5s-7.9-0.9-11.4-2.5c-3.4-1.6-6-4-7.9-7s-2.8-6.6-2.8-10.6
	C623.9,340.3,624.9,336.7,626.9,333.7z M638.2,349.6c0.9,1.5,1.9,2.5,3.3,3.3c1.3,0.7,2.8,1.2,4.5,1.2s3.1-0.4,4.5-1.2
	s2.4-1.9,3.3-3.3c0.7-1.5,1.2-3.1,1.2-5.1c0-1.9-0.4-3.7-1.2-5.2c-0.7-1.5-1.9-2.5-3.3-3.3c-1.3-0.7-2.8-1.2-4.5-1.2
	s-3.1,0.4-4.5,1.2c-1.3,0.7-2.4,1.9-3.3,3.3c-0.9,1.5-1.2,3.1-1.2,5.2S637.3,348.1,638.2,349.6z"/>
<path fill="#FDB917" d="M734.3,363.6h-12.7v-23.5c0-2.4-0.4-4.2-1.2-5.4s-1.9-1.8-3.7-1.8c-1,0-2.1,0.3-3,0.7
	c-0.9,0.6-1.5,1.3-1.9,2.4s-0.7,2.4-0.7,3.9v23.6h-12.7V340c0-2.4-0.4-4.2-1.2-5.4s-1.9-1.8-3.7-1.8c-1,0-2.1,0.3-3,0.7
	c-0.9,0.6-1.5,1.3-1.9,2.4s-0.7,2.4-0.7,3.9v23.6h-12.3v-38.6h12.3v5.7c1-2.1,2.5-3.7,4.3-4.8c1.9-1.2,4.2-1.8,6.7-1.8
	c3,0,5.4,0.6,7.2,1.6s3.1,2.7,3.9,4.8c1.3-1.9,3.1-3.6,5.2-4.6s4.3-1.6,7-1.6c3,0,5.4,0.6,7.2,1.6s3,2.8,3.7,4.9
	c0.7,2.2,1.2,4.8,1.2,7.9v24.8h0V363.6z"/>
</svg>
